<svg width="312" height="352" viewBox="0 0 312 352" fill="none" xmlns="http://www.w3.org/2000/svg">
<rect width="312" height="352" fill="#FCFCFC"/>
<path d="M65.2188 70.0909H70.3523V79.9886H70.5L77.2216 70.0909H81.5795V89H76.446V79.0653H76.3352L69.5028 89H65.2188V70.0909ZM84.0817 89V74.8182H89.1783V79.8778H90.0646L93.093 74.8182H98.9283L94.3857 81.983L98.9652 89H93.0561L90.3232 84.6051H89.1783V89H84.0817ZM106.402 89.2585C104.864 89.2585 103.546 88.9538 102.451 88.3445C101.355 87.7289 100.515 86.8733 99.93 85.7777C99.3453 84.6759 99.0529 83.3987 99.0529 81.946C99.0529 80.4934 99.3453 79.2192 99.93 78.1236C100.515 77.0218 101.355 76.1662 102.451 75.5568C103.546 74.9413 104.864 74.6335 106.402 74.6335C107.941 74.6335 109.258 74.9413 110.354 75.5568C111.45 76.1662 112.29 77.0218 112.875 78.1236C113.459 79.2192 113.752 80.4934 113.752 81.946C113.752 83.3987 113.459 84.6759 112.875 85.7777C112.29 86.8733 111.45 87.7289 110.354 88.3445C109.258 88.9538 107.941 89.2585 106.402 89.2585ZM106.439 85.4915C106.87 85.4915 107.243 85.3468 107.556 85.0575C107.87 84.7682 108.114 84.3558 108.286 83.8203C108.458 83.2848 108.544 82.6477 108.544 81.9091C108.544 81.1643 108.458 80.5272 108.286 79.9979C108.114 79.4624 107.87 79.05 107.556 78.7607C107.243 78.4714 106.87 78.3267 106.439 78.3267C105.984 78.3267 105.593 78.4714 105.267 78.7607C104.94 79.05 104.691 79.4624 104.519 79.9979C104.346 80.5272 104.26 81.1643 104.26 81.9091C104.26 82.6477 104.346 83.2848 104.519 83.8203C104.691 84.3558 104.94 84.7682 105.267 85.0575C105.593 85.3468 105.984 85.4915 106.439 85.4915ZM125.939 79.9517V83.7557H118.811V79.9517H125.939ZM120.621 74.8182V89H115.82V74.8182H120.621ZM128.931 74.8182V89H124.167V74.8182H128.931ZM131.359 89V74.8182H136.456V79.8778H137.342L140.37 74.8182H146.206L141.663 81.983L146.243 89H140.333L137.6 84.6051H136.456V89H131.359ZM152.232 82.5L156.184 74.8182H160.985V89H156.184V81.2812L152.232 89H147.431V74.8182H152.232V82.5Z" fill="#2D3440"/>
<path d="M76.0259 265.202C76.902 265.202 77.7628 265.425 78.522 265.85C79.2813 266.275 79.9122 266.886 80.3518 267.622C80.7913 268.358 81.024 269.193 81.0265 270.044C81.0289 270.895 80.8011 271.732 80.3658 272.47C80.6678 272.512 80.9518 272.635 81.1859 272.825C81.4201 273.015 81.5952 273.264 81.6917 273.545C81.7881 273.826 81.8021 274.128 81.732 274.416C81.662 274.704 81.5106 274.968 81.295 275.178C81.0793 275.387 80.8078 275.534 80.511 275.602C80.2141 275.67 79.9036 275.657 79.6143 275.563C79.325 275.469 79.0682 275.299 78.8728 275.072C78.6774 274.844 78.551 274.568 78.5079 274.275C78.446 274.31 78.3824 274.342 78.3187 274.375C78.2303 274.904 77.9511 275.384 77.531 275.732C77.1109 276.079 76.5774 276.269 76.0259 276.269C75.4744 276.269 74.9409 276.079 74.5208 275.732C74.1007 275.384 73.8215 274.904 73.7331 274.375C73.6694 274.342 73.6058 274.31 73.5439 274.275C73.5009 274.569 73.3745 274.845 73.1789 275.072C72.9833 275.3 72.7263 275.47 72.4366 275.564C72.147 275.658 71.8362 275.671 71.5392 275.603C71.2421 275.534 70.9706 275.387 70.7551 275.177C70.5395 274.967 70.3885 274.703 70.3189 274.414C70.2494 274.125 70.264 273.823 70.3612 273.542C70.4585 273.261 70.6344 273.012 70.8694 272.823C71.1043 272.633 71.3889 272.511 71.6912 272.47C71.2562 271.732 71.0284 270.896 71.0306 270.046C71.0329 269.195 71.265 268.36 71.704 267.624C72.1429 266.888 72.7731 266.277 73.5316 265.852C74.2901 265.427 75.1502 265.203 76.0259 265.202ZM76.0259 264C75.0443 263.999 74.0764 264.224 73.201 264.655C72.3256 265.087 71.5674 265.713 70.9882 266.483C70.4089 267.252 70.025 268.144 69.8676 269.085C69.7103 270.026 69.7839 270.99 70.0825 271.899C69.5038 272.347 69.1254 272.995 69.026 273.707C68.9267 274.419 69.1141 275.142 69.5493 275.723C69.9844 276.305 70.6337 276.701 71.3621 276.829C72.0904 276.957 72.8415 276.808 73.459 276.411C73.7925 276.747 74.1923 277.015 74.6345 277.197C75.0768 277.38 75.5524 277.474 76.033 277.474C76.5135 277.474 76.9891 277.38 77.4314 277.197C77.8736 277.015 78.2734 276.747 78.6069 276.411C79.2247 276.785 79.9652 276.917 80.6792 276.78C81.3932 276.644 82.0275 276.25 82.4541 275.678C82.8807 275.105 83.0679 274.397 82.9779 273.695C82.8879 272.994 82.5275 272.352 81.9692 271.899C82.2679 270.99 82.3415 270.026 82.1841 269.085C82.0268 268.144 81.6428 267.252 81.0636 266.483C80.4844 265.713 79.7262 265.087 78.8508 264.655C77.9754 264.224 77.0075 263.999 76.0259 264Z" fill="#2D3440"/>
<path d="M80.1325 277.533C79.6457 277.531 79.1644 277.433 78.7183 277.244C78.6528 277.296 78.5839 277.342 78.515 277.39L78.6087 277.479L77.9192 278.149L77.624 277.862C77.502 277.909 77.3783 277.95 77.251 277.986L77.6682 278.391L76.9805 279.061L76.2875 278.391L76.5615 278.125C76.3856 278.147 76.2085 278.158 76.0312 278.159C75.8592 278.159 75.6874 278.148 75.5168 278.127L75.789 278.391L75.0996 279.061L74.4101 278.391L74.8238 277.989C74.6979 277.954 74.574 277.913 74.4525 277.866L74.1556 278.149L73.459 277.479L73.5457 277.395C73.4732 277.345 73.4025 277.297 73.3335 277.244C72.8874 277.433 72.4061 277.531 71.9193 277.533C71.8839 277.533 71.8486 277.533 71.8132 277.533C71.7998 277.626 71.8095 277.721 71.8415 277.811L75.4443 287.619C75.4482 287.631 75.453 287.642 75.4584 287.653C75.4632 287.665 75.4692 287.677 75.4761 287.687C75.4885 287.712 75.5026 287.734 75.5168 287.756L75.5327 287.778C75.5544 287.807 75.5787 287.833 75.6052 287.857L75.6228 287.871L75.6918 287.923L75.7236 287.94C75.7481 287.953 75.7735 287.965 75.7996 287.974H75.8191L75.8898 287.991H75.9181C75.9835 288.003 76.0506 288.003 76.1161 287.991H76.1461L76.215 287.974H76.2451C76.2705 287.964 76.2953 287.953 76.3193 287.94L76.3512 287.921C76.376 287.907 76.3991 287.89 76.4201 287.871L76.4396 287.857C76.4656 287.833 76.4898 287.806 76.512 287.778L76.5262 287.756C76.542 287.734 76.5562 287.711 76.5686 287.687L76.6004 287.619L80.2103 277.806C80.2431 277.716 80.2528 277.621 80.2386 277.527C80.2032 277.527 80.1767 277.533 80.1325 277.533ZM77.6576 280.216L76.9681 280.886L76.2875 280.216L76.9752 279.547L77.6576 280.216ZM75.3435 281.128L76.033 280.458L76.7224 281.128L76.033 281.798L75.3435 281.128ZM76.7224 282.953L76.033 283.623L75.3435 282.953L76.033 282.284L76.7224 282.953ZM76.033 278.635L76.7224 279.305L76.033 279.969L75.3435 279.299L76.033 278.635ZM75.7837 280.216L75.0943 280.886L74.4048 280.216L75.0943 279.547L75.7837 280.216ZM73.1479 277.788L73.2151 277.723L73.9045 278.391L73.5103 278.767L73.1479 277.788ZM73.6358 279.133L74.1485 278.635L74.8362 279.305L74.1556 279.969L73.8391 279.662L73.6358 279.133ZM74.1361 280.484L74.1556 280.465L74.8432 281.135L74.4985 281.478L74.1361 280.484ZM74.8733 282.502L74.6223 281.815L75.0872 281.365L75.7766 282.035L75.0943 282.716L74.8733 282.502ZM75.4796 284.154L75.1491 283.257L75.7766 283.865L75.4796 284.154ZM76.0188 285.624L75.6105 284.511L76.0259 284.107L76.4307 284.501L76.0188 285.624ZM76.5633 284.143L76.2875 283.865L76.8903 283.278L76.5633 284.143ZM77.1714 282.524L76.9717 282.716L76.2875 282.04L76.9752 281.372L77.4295 281.812L77.1714 282.524ZM77.5639 281.454L77.2298 281.128L77.9192 280.458V280.467L77.5639 281.454ZM78.2127 279.687L77.9121 279.969L77.2227 279.299L77.9121 278.63L78.4089 279.123L78.2127 279.687ZM78.545 278.767L78.1614 278.393L78.8508 277.723L78.9074 277.778L78.545 278.767Z" fill="#2D3440"/>
<path d="M236 264C234.531 264.002 233.114 264.541 232.017 265.517C230.919 266.492 230.217 267.836 230.042 269.294H230V281.209H242V269.294H241.958C241.783 267.836 241.081 266.492 239.983 265.517C238.886 264.541 237.469 264.002 236 264ZM240.588 279.798H231.412V273.289C231.543 273.447 231.71 273.571 231.899 273.65C232.089 273.728 232.295 273.76 232.499 273.741C233.409 273.741 234.002 273.233 234.002 272.591V271.976C233.993 271.892 234.002 271.806 234.028 271.725C234.054 271.644 234.097 271.569 234.154 271.506C234.211 271.442 234.281 271.391 234.359 271.357C234.436 271.322 234.521 271.304 234.606 271.304C234.691 271.304 234.775 271.322 234.853 271.357C234.931 271.391 235.001 271.442 235.058 271.506C235.115 271.569 235.158 271.644 235.184 271.725C235.21 271.806 235.219 271.892 235.209 271.976V274.299C235.212 274.486 235.254 274.67 235.333 274.839C235.411 275.009 235.525 275.16 235.667 275.282C235.808 275.404 235.974 275.494 236.153 275.548C236.332 275.601 236.521 275.616 236.706 275.591C236.887 275.616 237.071 275.604 237.247 275.555C237.422 275.505 237.586 275.42 237.727 275.303C237.868 275.187 237.983 275.043 238.065 274.879C238.146 274.716 238.193 274.538 238.202 274.355V272.795C238.191 272.664 238.207 272.531 238.25 272.406C238.292 272.281 238.36 272.166 238.45 272.069C238.539 271.972 238.647 271.894 238.768 271.841C238.889 271.788 239.02 271.76 239.152 271.76C239.284 271.76 239.414 271.788 239.535 271.841C239.656 271.894 239.765 271.972 239.854 272.069C239.943 272.166 240.011 272.281 240.054 272.406C240.096 272.531 240.113 272.664 240.101 272.795C240.099 272.816 240.099 272.838 240.101 272.859C240.119 272.995 240.172 273.125 240.255 273.235C240.338 273.345 240.448 273.432 240.574 273.487V279.84L240.588 279.798Z" fill="#2D3440"/>
<path d="M234.941 286.941C234.941 287.222 235.053 287.491 235.251 287.69C235.45 287.888 235.719 288 236 288C236.281 288 236.55 287.888 236.749 287.69C236.947 287.491 237.059 287.222 237.059 286.941V281.915H234.941V286.941Z" fill="#2D3440"/>
<path d="M118.392 267.802C118.392 266.794 118.023 265.827 117.367 265.114C116.71 264.401 115.82 264 114.892 264C113.963 264 113.073 264.401 112.417 265.114C111.76 265.827 111.392 266.794 111.392 267.802V278.868C110.494 279.863 109.994 281.202 110 282.595C109.998 283.487 110.199 284.365 110.586 285.152C110.973 285.939 111.534 286.608 112.218 287.102C112.903 287.595 113.689 287.896 114.506 287.977C115.324 288.059 116.148 287.919 116.903 287.57C117.659 287.221 118.323 286.673 118.836 285.977C119.349 285.28 119.694 284.456 119.842 283.579C119.989 282.701 119.934 281.798 119.681 280.949C119.428 280.101 118.985 279.334 118.392 278.717V267.802ZM118.517 282.595C118.524 283.254 118.376 283.905 118.086 284.485C117.797 285.065 117.375 285.554 116.863 285.908C116.35 286.261 115.763 286.466 115.156 286.503C114.55 286.541 113.945 286.409 113.399 286.121C112.852 285.833 112.383 285.398 112.035 284.858C111.687 284.317 111.472 283.689 111.41 283.033C111.349 282.376 111.442 281.714 111.683 281.108C111.923 280.502 112.302 279.973 112.783 279.571V267.802C112.783 267.195 113.005 266.612 113.401 266.183C113.796 265.753 114.333 265.512 114.892 265.512C115.451 265.512 115.987 265.753 116.383 266.183C116.778 266.612 117 267.195 117 267.802V279.428C117.47 279.783 117.853 280.257 118.117 280.808C118.381 281.36 118.518 281.973 118.517 282.595Z" fill="#2D3440"/>
<path d="M115.65 280.229V267.855C115.65 267.655 115.577 267.462 115.446 267.321C115.316 267.179 115.139 267.099 114.954 267.099C114.77 267.099 114.593 267.179 114.462 267.321C114.332 267.462 114.258 267.655 114.258 267.855V280.229C113.794 280.407 113.403 280.758 113.154 281.219C112.905 281.681 112.814 282.223 112.897 282.75C112.98 283.277 113.232 283.756 113.609 284.101C113.985 284.445 114.462 284.634 114.954 284.634C115.447 284.634 115.923 284.445 116.3 284.101C116.676 283.756 116.928 283.277 117.012 282.75C117.095 282.223 117.004 281.681 116.755 281.219C116.506 280.758 116.114 280.407 115.65 280.229Z" fill="#2D3440"/>
<path d="M124 266.956H119.825V268.467H124V266.956Z" fill="#2D3440"/>
<path d="M124 269.979H119.825V271.491H124V269.979Z" fill="#2D3440"/>
<path d="M124 273.003H119.825V274.514H124V273.003Z" fill="#2D3440"/>
<path d="M124 276.026H119.825V277.538H124V276.026Z" fill="#2D3440"/>
<path d="M162.993 277.864C162.688 271.057 156.757 264.466 156.493 264.179C156.493 264.179 156.493 264.179 156.459 264.179L156.377 264.086L156.289 264.029H155.91L155.781 264H155.747L155.625 264.086L155.55 264.15C155.55 264.15 155.55 264.15 155.517 264.15C155.252 264.466 149.321 271.064 149.003 277.864C148.999 277.914 148.999 277.964 149.003 278.014C149.003 278.272 149.003 278.53 149.003 278.795C149.26 286.175 155.781 287.98 155.835 287.995H156.005C156.061 288.002 156.118 288.002 156.174 287.995C156.235 287.995 162.749 286.139 163 278.795C163 278.53 163 278.272 163 278.014C163 277.964 162.993 277.914 162.993 277.864ZM150.792 275.349C152.146 276.579 153.677 277.573 155.327 278.294V281.554C153.666 280.687 151.111 279.146 150.358 277.792C150.419 276.965 150.558 276.147 150.772 275.349H150.792ZM152.148 271.695C153.034 272.674 154.122 273.424 155.327 273.887V276.71C153.812 276.035 152.432 275.062 151.26 273.844C151.518 273.111 151.814 272.393 152.148 271.695ZM160.763 273.844C159.591 275.063 158.211 276.035 156.696 276.71V273.887C157.891 273.42 158.969 272.67 159.848 271.695C160.19 272.383 160.495 273.091 160.763 273.816V273.844ZM156.696 272.368V266.637C157.602 267.811 158.429 269.051 159.17 270.348C158.516 271.227 157.66 271.912 156.682 272.34L156.696 272.368ZM156.696 281.568V278.294C158.352 277.579 159.89 276.59 161.251 275.363C161.459 276.164 161.59 276.985 161.644 277.814C160.899 279.146 158.343 280.68 156.682 281.539L156.696 281.568ZM155.34 272.368C154.359 271.936 153.501 271.239 152.853 270.348C153.593 269.039 154.42 267.787 155.327 266.601L155.34 272.368ZM150.501 280.056C151.983 281.287 153.604 282.32 155.327 283.13V286.282C154.094 285.753 153.007 284.906 152.164 283.818C151.321 282.731 150.749 281.437 150.501 280.056ZM156.682 286.29V283.123C158.407 282.319 160.028 281.288 161.509 280.056C161.271 281.443 160.703 282.742 159.859 283.833C159.014 284.923 157.921 285.769 156.682 286.29Z" fill="#2D3440"/>
<path d="M204.062 271.715C204.605 270.602 204.916 269.396 204.975 268.166C205.034 266.936 204.84 265.707 204.405 264.55C204.359 264.409 204.271 264.285 204.153 264.191C204.034 264.098 203.889 264.041 203.737 264.026C203.585 264.012 203.432 264.041 203.297 264.11C203.162 264.179 203.051 264.285 202.977 264.414C201.986 266.128 199.855 268.891 198.294 269.02H198.224C197.507 268.883 196.778 268.807 196.047 268.793C195.313 268.807 194.582 268.883 193.862 269.02H193.807C192.246 268.899 190.084 266.136 189.085 264.422C189.016 264.285 188.905 264.171 188.767 264.097C188.629 264.022 188.471 263.989 188.314 264.003C188.157 264.017 188.008 264.077 187.886 264.174C187.765 264.272 187.677 264.403 187.634 264.55C187.191 265.703 186.99 266.93 187.043 268.158C187.095 269.387 187.399 270.594 187.938 271.708C186.58 271.874 184.856 272.296 184.231 273.361C184.08 273.613 184 273.9 184 274.191C184 274.483 184.08 274.77 184.231 275.022C184.41 275.33 184.676 275.583 184.998 275.75C185.32 275.917 185.685 275.992 186.05 275.966C186.696 275.953 187.336 275.83 187.938 275.603C187.933 276.011 187.967 276.417 188.04 276.819C188.388 278.16 188.845 279.473 189.405 280.745C189.554 281.099 189.718 281.5 189.803 281.741C189.547 282.347 189.346 282.974 189.203 283.614C189.165 284.066 189.224 284.52 189.374 284.95C189.524 285.38 189.763 285.775 190.077 286.113C191.208 287.366 193.198 288 196.023 288C198.849 288 200.846 287.366 201.97 286.113C202.285 285.776 202.525 285.381 202.675 284.951C202.826 284.521 202.883 284.066 202.844 283.614C202.703 282.974 202.505 282.347 202.251 281.741C202.337 281.5 202.501 281.107 202.641 280.745C203.208 279.475 203.665 278.162 204.007 276.819C204.086 276.418 204.122 276.011 204.116 275.603C204.699 275.823 205.317 275.946 205.943 275.966C206.308 275.992 206.674 275.917 206.997 275.75C207.32 275.583 207.588 275.33 207.769 275.022C207.92 274.77 208 274.483 208 274.191C208 273.9 207.92 273.613 207.769 273.361C207.152 272.334 205.427 271.881 204.062 271.715ZM203.32 266.702C203.602 268.281 203.327 269.905 202.54 271.315C202.344 271.085 202.136 270.866 201.916 270.658C201.475 270.266 200.971 269.945 200.425 269.707C201.551 268.862 202.528 267.847 203.32 266.702ZM188.719 266.702C189.503 267.855 190.479 268.876 191.606 269.722C191.061 269.953 190.562 270.275 190.131 270.673C189.908 270.88 189.697 271.1 189.499 271.33C188.71 269.916 188.435 268.286 188.719 266.702ZM185.644 274.297C185.574 274.176 185.597 274.139 185.644 274.108C185.823 273.814 186.729 273.353 188.461 273.18C188.375 273.399 188.297 273.618 188.227 273.844C187.212 274.35 185.855 274.667 185.644 274.297ZM202.47 276.562C202.143 277.801 201.72 279.015 201.205 280.193C201.002 280.655 200.822 281.126 200.667 281.605L200.62 281.839L200.706 282.051C200.953 282.626 201.154 283.22 201.307 283.825C201.315 284.063 201.275 284.3 201.187 284.523C201.1 284.746 200.969 284.95 200.8 285.124C200.238 285.75 198.958 286.49 196.031 286.49C193.105 286.49 191.825 285.735 191.263 285.124C190.926 284.771 190.744 284.305 190.756 283.825C190.912 283.22 191.115 282.626 191.364 282.051L191.45 281.839L191.396 281.605C191.249 281.122 191.072 280.648 190.865 280.186C190.341 279.002 189.913 277.78 189.585 276.532C189.436 275.662 189.509 274.769 189.797 273.933C190.086 273.096 190.581 272.34 191.239 271.73C192.418 270.583 195.087 270.326 196.016 270.318C196.944 270.311 199.559 270.575 200.807 271.745C201.47 272.349 201.969 273.102 202.259 273.937C202.549 274.772 202.621 275.663 202.47 276.532V276.562ZM206.372 274.297C206.169 274.659 204.811 274.35 203.843 273.852C203.781 273.625 203.703 273.406 203.617 273.18C205.334 273.353 206.231 273.814 206.403 274.108C206.442 274.139 206.458 274.176 206.387 274.297H206.372Z" fill="#2D3440"/>
<path fill-rule="evenodd" clip-rule="evenodd" d="M129.167 161.25C128.798 161.25 128.5 161.548 128.5 161.917C128.5 162.285 128.798 162.583 129.167 162.583H130.938L131.405 164.919C131.408 164.937 131.412 164.954 131.416 164.972L132.383 169.805L132.383 169.806C132.467 170.226 132.696 170.603 133.029 170.872C133.361 171.139 133.776 171.281 134.202 171.275H139.823C140.248 171.281 140.663 171.139 140.995 170.872C141.329 170.603 141.558 170.225 141.641 169.805L141.641 169.805L141.642 169.8L142.569 164.939C142.606 164.744 142.555 164.542 142.428 164.389C142.301 164.236 142.113 164.147 141.914 164.147H132.611L132.138 161.786C132.076 161.474 131.802 161.25 131.484 161.25H129.167ZM133.691 169.544L132.878 165.48H141.108L140.333 169.547C140.31 169.66 140.249 169.761 140.159 169.833C140.069 169.905 139.957 169.944 139.841 169.942L139.841 169.941H139.828H134.196V169.941L134.183 169.942C134.068 169.944 133.955 169.905 133.865 169.833C133.775 169.76 133.714 169.659 133.691 169.545L133.691 169.544ZM132.557 173.505C132.557 172.817 133.115 172.26 133.803 172.26C134.491 172.26 135.049 172.817 135.049 173.505C135.049 174.193 134.491 174.751 133.803 174.751C133.115 174.751 132.557 174.193 132.557 173.505ZM138.931 173.505C138.931 172.817 139.488 172.26 140.176 172.26C140.864 172.26 141.422 172.817 141.422 173.505C141.422 174.193 140.864 174.751 140.176 174.751C139.488 174.751 138.931 174.193 138.931 173.505Z" fill="#2D3440"/>
<path fill-rule="evenodd" clip-rule="evenodd" d="M112 136C112 140.418 108.418 144 104 144C99.5817 144 96 140.418 96 136C96 131.582 99.5817 128 104 128C108.418 128 112 131.582 112 136ZM105.619 136.6H104.667V140H103.143V136.6H102V135H103.143V133.88C103.143 132.663 103.877 132 104.912 132C105.407 132 105.876 132.039 106 132.056V133.4H105.429C104.667 133.4 104.667 133.788 104.667 134.2V135H106L105.619 136.6Z" fill="#2D3440"/>
<path fill-rule="evenodd" clip-rule="evenodd" d="M144 136C144 140.418 140.418 144 136 144C131.582 144 128 140.418 128 136C128 131.582 131.582 128 136 128C140.418 128 144 131.582 144 136ZM137.649 132.024C137.222 132.004 137.087 132 136 132C134.913 132 134.778 132.005 134.351 132.024C133.925 132.044 133.635 132.111 133.38 132.21C133.113 132.31 132.871 132.468 132.671 132.671C132.468 132.871 132.31 133.113 132.21 133.38C132.111 133.635 132.044 133.925 132.024 134.351C132.004 134.778 132 134.913 132 136C132 137.087 132.005 137.222 132.024 137.649C132.044 138.075 132.111 138.365 132.21 138.62C132.31 138.887 132.468 139.129 132.671 139.329C132.871 139.532 133.113 139.69 133.38 139.79C133.635 139.889 133.925 139.956 134.351 139.976C134.778 139.996 134.913 140 136 140C137.087 140 137.222 139.995 137.649 139.976C138.075 139.956 138.365 139.889 138.62 139.79C138.887 139.69 139.129 139.532 139.329 139.329C139.532 139.129 139.69 138.887 139.79 138.62C139.889 138.365 139.956 138.075 139.976 137.649C139.996 137.222 140 137.087 140 136C140 134.913 139.995 134.778 139.976 134.351C139.956 133.925 139.889 133.635 139.79 133.38C139.69 133.113 139.532 132.871 139.329 132.671C139.106 132.449 138.884 132.312 138.62 132.21C138.365 132.111 138.075 132.044 137.649 132.024ZM134.586 134.586C134.961 134.211 135.47 134 136 134C136.53 134 137.039 134.211 137.414 134.586C137.789 134.961 138 135.47 138 136C138 136.53 137.789 137.039 137.414 137.414C137.039 137.789 136.53 138 136 138C135.47 138 134.961 137.789 134.586 137.414C134.211 137.039 134 136.53 134 136C134 135.47 134.211 134.961 134.586 134.586ZM138.454 133.546C138.547 133.64 138.6 133.767 138.6 133.9C138.6 134.033 138.547 134.16 138.454 134.254C138.36 134.347 138.233 134.4 138.1 134.4C137.967 134.4 137.84 134.347 137.746 134.254C137.653 134.16 137.6 134.033 137.6 133.9C137.6 133.767 137.653 133.64 137.746 133.546C137.84 133.453 137.967 133.4 138.1 133.4C138.233 133.4 138.36 133.453 138.454 133.546ZM136.849 135.151C136.623 134.926 136.318 134.8 136 134.8C135.682 134.8 135.377 134.926 135.151 135.151C134.926 135.377 134.8 135.682 134.8 136C134.8 136.318 134.926 136.623 135.151 136.849C135.377 137.074 135.682 137.2 136 137.2C136.318 137.2 136.623 137.074 136.849 136.849C137.074 136.623 137.2 136.318 137.2 136C137.2 135.682 137.074 135.377 136.849 135.151Z" fill="#2D3440"/>
<path fill-rule="evenodd" clip-rule="evenodd" d="M176 136C176 140.418 172.418 144 168 144C163.582 144 160 140.418 160 136C160 131.582 163.582 128 168 128C172.418 128 176 131.582 176 136ZM168.392 137.983H167.914C167.914 137.983 166.859 138.039 165.93 137.191C164.917 136.266 164.022 134.431 164.022 134.431C164.022 134.431 163.97 134.311 164.026 134.253C164.089 134.187 164.261 134.183 164.261 134.183L165.404 134.177C165.404 134.177 165.512 134.193 165.589 134.242C165.652 134.283 165.688 134.36 165.688 134.36C165.688 134.36 165.873 134.769 166.117 135.14C166.595 135.863 166.817 136.021 166.979 135.943C167.216 135.831 167.145 134.921 167.145 134.921C167.145 134.921 167.149 134.591 167.026 134.444C166.93 134.33 166.75 134.297 166.671 134.288C166.606 134.28 166.712 134.149 166.849 134.09C167.055 134.002 167.418 133.997 167.847 134.001C168.181 134.004 168.278 134.022 168.408 134.05C168.712 134.114 168.702 134.32 168.682 134.764C168.676 134.896 168.669 135.05 168.669 135.228C168.669 135.268 168.667 135.31 168.666 135.354C168.659 135.582 168.651 135.842 168.822 135.939C168.909 135.988 169.123 135.946 169.659 135.149C169.913 134.771 170.103 134.327 170.103 134.327C170.103 134.327 170.145 134.248 170.209 134.214C170.276 134.179 170.365 134.19 170.365 134.19L171.568 134.183C171.568 134.183 171.929 134.145 171.988 134.288C172.049 134.438 171.853 134.789 171.361 135.363C170.898 135.904 170.671 136.106 170.689 136.282C170.702 136.413 170.849 136.53 171.134 136.762C171.726 137.244 171.884 137.497 171.922 137.557C171.925 137.562 171.927 137.566 171.929 137.568C172.194 137.953 171.635 137.983 171.635 137.983L170.566 137.996C170.566 137.996 170.337 138.036 170.035 137.854C169.877 137.759 169.722 137.604 169.575 137.456C169.35 137.23 169.142 137.021 168.965 137.07C168.667 137.153 168.676 137.716 168.676 137.716C168.676 137.716 168.678 137.836 168.61 137.9C168.537 137.969 168.392 137.983 168.392 137.983Z" fill="#2D3440"/>
<path fill-rule="evenodd" clip-rule="evenodd" d="M105 161.667C105 161.298 105.298 161 105.667 161H108.333C108.864 161 109.372 161.211 109.748 161.586C110.123 161.961 110.333 162.47 110.333 163V172.333C110.333 172.864 110.123 173.372 109.748 173.748C109.372 174.123 108.864 174.333 108.333 174.333H105.667C105.298 174.333 105 174.035 105 173.667C105 173.298 105.298 173 105.667 173H108.333C108.51 173 108.68 172.93 108.805 172.805C108.93 172.68 109 172.51 109 172.333V163C109 162.823 108.93 162.654 108.805 162.529C108.68 162.404 108.51 162.333 108.333 162.333H105.667C105.298 162.333 105 162.035 105 161.667ZM101.862 163.862C102.122 163.602 102.544 163.602 102.805 163.862L106.134 167.191C106.151 167.208 106.167 167.226 106.182 167.244C106.214 167.283 106.241 167.325 106.263 167.368C106.308 167.458 106.333 167.559 106.333 167.667C106.333 167.775 106.307 167.878 106.261 167.968C106.241 168.008 106.216 168.047 106.188 168.083C106.171 168.104 106.153 168.124 106.134 168.143L102.805 171.471C102.544 171.732 102.122 171.732 101.862 171.471C101.602 171.211 101.602 170.789 101.862 170.529L104.057 168.333H97.6667C97.2985 168.333 97 168.035 97 167.667C97 167.298 97.2985 167 97.6667 167H104.057L101.862 164.805C101.602 164.544 101.602 164.122 101.862 163.862Z" fill="#2D3440"/>
<path fill-rule="evenodd" clip-rule="evenodd" d="M66.6634 167.33C66.6634 164.753 68.7527 162.663 71.3301 162.663C73.9074 162.663 75.9967 164.753 75.9967 167.33C75.9967 168.587 75.4995 169.728 74.691 170.568C74.6682 170.585 74.6462 170.604 74.6253 170.625C74.6044 170.646 74.5852 170.668 74.5676 170.691C73.7285 171.5 72.5873 171.997 71.3301 171.997C68.7527 171.997 66.6634 169.907 66.6634 167.33ZM75.0752 172.018C74.0487 172.839 72.7467 173.33 71.3301 173.33C68.0164 173.33 65.3301 170.644 65.3301 167.33C65.3301 164.016 68.0164 161.33 71.3301 161.33C74.6438 161.33 77.3301 164.016 77.3301 167.33C77.3301 168.747 76.8391 170.049 76.018 171.075L78.4681 173.525C78.7285 173.786 78.7285 174.208 78.4681 174.468C78.2078 174.729 77.7857 174.729 77.5253 174.468L75.0752 172.018Z" fill="#2D3440"/>
<path fill-rule="evenodd" clip-rule="evenodd" d="M172.803 196.138C173.063 195.878 173.063 195.456 172.803 195.195C172.543 194.935 172.121 194.935 171.86 195.195L167.999 199.056L164.138 195.195C163.878 194.935 163.456 194.935 163.195 195.195C162.935 195.456 162.935 195.878 163.195 196.138L167.056 199.999L163.195 203.86C162.935 204.121 162.935 204.543 163.195 204.803C163.456 205.063 163.878 205.063 164.138 204.803L167.999 200.942L171.86 204.803C172.121 205.063 172.543 205.063 172.803 204.803C173.063 204.543 173.063 204.121 172.803 203.86L168.942 199.999L172.803 196.138Z" fill="#2D3440"/>
<path fill-rule="evenodd" clip-rule="evenodd" d="M168 162.333C164.871 162.333 162.333 164.871 162.333 168C162.333 171.13 164.871 173.667 168 173.667C171.13 173.667 173.667 171.13 173.667 168C173.667 164.871 171.13 162.333 168 162.333ZM161 168C161 164.134 164.134 161 168 161C171.866 161 175.001 164.134 175.001 168C175.001 171.866 171.866 175.001 168 175.001C164.134 175.001 161 171.866 161 168ZM168 167.333C168.368 167.333 168.667 167.632 168.667 168V170.533C168.667 170.902 168.368 171.2 168 171.2C167.632 171.2 167.333 170.902 167.333 170.533V168C167.333 167.632 167.632 167.333 168 167.333ZM168 164.8C167.632 164.8 167.333 165.098 167.333 165.467C167.333 165.835 167.632 166.133 168 166.133H168.007C168.375 166.133 168.673 165.835 168.673 165.467C168.673 165.098 168.375 164.8 168.007 164.8H168Z" fill="#2D3440"/>
<path fill-rule="evenodd" clip-rule="evenodd" d="M73.8033 195.805C74.063 195.545 74.063 195.124 73.8033 194.865C73.5436 194.605 73.1226 194.605 72.8629 194.865L68.1948 199.533C67.9359 199.792 67.9351 200.211 68.1922 200.471C68.1934 200.472 68.1945 200.473 68.1957 200.474L72.8638 205.142C73.1235 205.402 73.5445 205.402 73.8042 205.142C74.0639 204.883 74.0639 204.462 73.8042 204.202L69.6054 200.003L73.8033 195.805Z" fill="#2D3440"/>
<path fill-rule="evenodd" clip-rule="evenodd" d="M103.135 194.865C102.876 194.605 102.455 194.605 102.195 194.865C101.935 195.124 101.935 195.545 102.195 195.805L106.396 200.006L102.195 204.208C101.935 204.467 101.935 204.889 102.195 205.148C102.454 205.408 102.876 205.408 103.135 205.148L107.804 200.479C107.805 200.479 107.806 200.478 107.807 200.477C108.066 200.217 108.066 199.796 107.807 199.536L103.135 194.865Z" fill="#2D3440"/>
<path fill-rule="evenodd" clip-rule="evenodd" d="M131.808 198.195C131.548 197.935 131.126 197.935 130.865 198.195C130.605 198.456 130.605 198.878 130.865 199.138L135.526 203.798C135.528 203.801 135.53 203.803 135.532 203.805C135.662 203.935 135.834 204.001 136.005 204C136.175 204 136.345 203.934 136.475 203.805C136.477 203.803 136.479 203.801 136.481 203.798L141.141 199.138C141.402 198.878 141.402 198.456 141.141 198.195C140.881 197.935 140.459 197.935 140.198 198.195L136.003 202.39L131.808 198.195Z" fill="#2D3440"/>
<path d="M77.8911 130.994C77.5506 130.654 77.1463 130.384 76.7014 130.199C76.2564 130.015 75.7795 129.92 75.2978 129.92C74.8161 129.92 74.3392 130.015 73.8942 130.199C73.4493 130.384 73.045 130.654 72.7045 130.994L71.9978 131.701L71.2911 130.994C70.6033 130.307 69.6705 129.92 68.6978 129.92C67.7251 129.92 66.7923 130.307 66.1045 130.994C65.4167 131.682 65.0303 132.615 65.0303 133.588C65.0303 134.56 65.4167 135.493 66.1045 136.181L66.8111 136.888L71.9978 142.074L77.1845 136.888L77.8911 136.181C78.2318 135.841 78.502 135.436 78.6864 134.991C78.8708 134.546 78.9657 134.069 78.9657 133.588C78.9657 133.106 78.8708 132.629 78.6864 132.184C78.502 131.739 78.2318 131.335 77.8911 130.994Z" fill="#2D3440"/>
<path fill-rule="evenodd" clip-rule="evenodd" d="M134.475 227.808C134.735 227.548 134.735 227.126 134.475 226.865C134.214 226.605 133.792 226.605 133.532 226.865L128.865 231.532C128.605 231.792 128.605 232.214 128.865 232.475L133.532 237.141C133.792 237.402 134.214 237.402 134.475 237.141C134.735 236.881 134.735 236.459 134.475 236.199L130.946 232.67H142.673C143.041 232.67 143.34 232.371 143.34 232.003C143.34 231.635 143.041 231.337 142.673 231.337H130.946L134.475 227.808Z" fill="#2D3440"/>
<path fill-rule="evenodd" clip-rule="evenodd" d="M74.478 226.865C74.2177 226.605 73.7956 226.605 73.5352 226.865C73.2749 227.126 73.2749 227.548 73.5352 227.808L77.0638 231.337H65.3366C64.9684 231.337 64.6699 231.635 64.6699 232.003C64.6699 232.371 64.9684 232.67 65.3366 232.67H77.0638L73.5352 236.199C73.2749 236.459 73.2749 236.881 73.5352 237.141C73.7956 237.402 74.2177 237.402 74.478 237.141L79.1447 232.475C79.4051 232.214 79.4051 231.792 79.1447 231.532L74.478 226.865Z" fill="#2D3440"/>
<path fill-rule="evenodd" clip-rule="evenodd" d="M168.67 225.337C168.67 224.968 168.371 224.67 168.003 224.67C167.635 224.67 167.337 224.968 167.337 225.337V237.06L163.808 233.532C163.548 233.272 163.126 233.272 162.865 233.532C162.605 233.792 162.605 234.214 162.865 234.475L167.532 239.141C167.792 239.402 168.214 239.402 168.475 239.141L173.141 234.475C173.402 234.214 173.402 233.792 173.141 233.532C172.881 233.272 172.459 233.272 172.199 233.532L168.67 237.06V225.337Z" fill="#2D3440"/>
<path fill-rule="evenodd" clip-rule="evenodd" d="M99.3536 227.146C99.1583 226.951 98.8417 226.951 98.6464 227.146C98.4512 227.342 98.4512 227.658 98.6464 227.854L100.793 230L98.6464 232.146C98.4512 232.342 98.4512 232.658 98.6464 232.854C98.8417 233.049 99.1583 233.049 99.3536 232.854L101.854 230.354C102.049 230.158 102.049 229.842 101.854 229.646L99.3536 227.146ZM102.854 227.146C102.658 226.951 102.342 226.951 102.146 227.146C101.951 227.342 101.951 227.658 102.146 227.854L104.293 230L102.146 232.146C101.951 232.342 101.951 232.658 102.146 232.854C102.342 233.049 102.658 233.049 102.854 232.854L105.354 230.354C105.549 230.158 105.549 229.842 105.354 229.646L102.854 227.146Z" fill="#2D3440"/>
</svg>
